<svg width="22" height="24" viewBox="0 0 22 24" fill="none" xmlns="http://www.w3.org/2000/svg">
<path d="M10.9979 24C10.6769 24 10.3569 23.916 10.0759 23.753L7.13991 22.016C6.70191 21.771 6.91591 21.684 7.05991 21.633C7.64491 21.43 7.76291 21.383 8.38791 21.029C8.45291 20.992 8.53891 21.006 8.60591 21.046L10.8619 22.385C10.9439 22.43 11.0589 22.43 11.1339 22.385L19.9289 17.309C20.0109 17.262 20.0629 17.168 20.0629 17.071V6.92101C20.0629 6.82201 20.0099 6.72901 19.9259 6.67901L11.1349 1.60701C11.0539 1.56001 10.9459 1.56001 10.8639 1.60701L2.07491 6.68001C1.98991 6.72901 1.93591 6.82501 1.93591 6.92101V17.071C1.93591 17.168 1.98991 17.26 2.07491 17.306L4.48391 18.698C5.79091 19.352 6.59191 18.582 6.59191 17.808V7.78701C6.59191 7.64501 6.70591 7.53401 6.84791 7.53401H7.96291C8.10191 7.53401 8.21791 7.64601 8.21791 7.78701V17.808C8.21791 19.553 7.26791 20.553 5.61391 20.553C5.10591 20.553 4.70491 20.553 3.58791 20.002L1.27991 18.675C0.70991 18.346 0.35791 17.73 0.35791 17.071V6.92101C0.35791 6.26201 0.71091 5.64601 1.27991 5.31801L10.0749 0.236006C10.6319 -0.0789941 11.3709 -0.0789941 11.9229 0.236006L20.7169 5.31801C21.2869 5.64701 21.6409 6.26201 21.6409 6.92101V17.071C21.6409 17.73 21.2869 18.344 20.7169 18.675L11.9229 23.753C11.6429 23.916 11.3239 24 10.9979 24ZM18.0989 13.993C18.0989 12.093 16.8149 11.587 14.1119 11.23C11.3809 10.869 11.1029 10.682 11.1029 10.043C11.1029 9.51501 11.3379 8.81001 13.3609 8.81001C15.1679 8.81001 15.8339 9.19901 16.1079 10.417C16.1319 10.532 16.2369 10.616 16.3549 10.616H17.4959C17.5669 10.616 17.6339 10.585 17.6819 10.535C17.7299 10.481 17.7559 10.412 17.7489 10.339C17.5719 8.24101 16.1779 7.26301 13.3609 7.26301C10.8529 7.26301 9.35691 8.32101 9.35691 10.096C9.35691 12.021 10.8449 12.553 13.2519 12.791C16.1319 13.073 16.3549 13.494 16.3549 14.06C16.3549 15.043 15.5659 15.462 13.7129 15.462C11.3859 15.462 10.8739 14.878 10.7019 13.72C10.6819 13.596 10.5759 13.505 10.4489 13.505H9.31191C9.17091 13.505 9.05791 13.617 9.05791 13.758C9.05791 15.24 9.86391 17.006 13.7129 17.006C16.5009 17.007 18.0989 15.91 18.0989 13.993Z" fill="#339933"/>
</svg>
